<svg width="197" height="105" viewBox="0 0 197 105" fill="none" xmlns="http://www.w3.org/2000/svg">
<circle cx="21.5" cy="53.5" r="6.5" fill="#2D3B83"/>
<path d="M21.5 53.5L21.6842 52.7785L27.5 30M21.5 53.5L2.5 55.5M21.5 53.5L28.5 84.5" stroke="#2D3B83"/>
<circle cx="69.5" cy="92.5" r="6.5" fill="#2D3B83"/>
<circle cx="108.5" cy="69.5" r="6.5" fill="#2D3B83"/>
<circle cx="131.5" cy="98.5" r="6.5" fill="#2D3B83"/>
<circle cx="167.5" cy="46.5" r="6.5" fill="#2D3B83"/>
<circle cx="95.5" cy="26.5" r="6.5" fill="#2D3B83"/>
<circle cx="190.5" cy="91.5" r="6.5" fill="#2D3B83"/>
<circle cx="28.5" cy="84.5" r="2.5" fill="#2D3B83"/>
<circle cx="27.5" cy="30.5" r="2.5" fill="#2D3B83"/>
<circle cx="2.5" cy="55.5" r="2.5" fill="#2D3B83"/>
<circle cx="78.5" cy="50.5" r="2.5" fill="#2D3B83"/>
<circle cx="93.5" cy="2.5" r="2.5" fill="#2D3B83"/>
<circle cx="78.5" cy="12.5" r="2.5" fill="#2D3B83"/>
<circle cx="120.5" cy="29.5" r="2.5" fill="#2D3B83"/>
<path d="M22 54L95.5 26L108.5 69.5M108.5 69.5L69.5 92.5M108.5 69.5L167.5 46M108.5 69.5L131.5 98.5L191 91" stroke="#2D3B83"/>
<path d="M94 2.5L96 26M96 26L121 29.5M96 26L78.5 12.5M96 26L78.5 50.5" stroke="#2D3B83"/>
</svg>
