<svg width="158" height="158" viewBox="0 0 158 158" fill="none" xmlns="http://www.w3.org/2000/svg">
<g clip-path="url(#clip0_2173_512)">
<path d="M79 158C122.63 158 158 122.63 158 79C158 35.3695 122.63 0 79 0C35.3695 0 0 35.3695 0 79C0 122.63 35.3695 158 79 158Z" fill="#2D3B83"/>
<path d="M113.124 47.6512C106.973 44.7837 100.313 42.7025 93.3753 41.5C93.3145 41.4981 93.254 41.5095 93.198 41.5334C93.1421 41.5574 93.0921 41.5934 93.0515 41.6388C92.219 43.165 91.2478 45.1537 90.6003 46.68C83.2419 45.57 75.7587 45.57 68.4003 46.68C67.7528 45.1075 66.7816 43.165 65.9028 41.6388C65.8566 41.5463 65.7178 41.5 65.579 41.5C58.6415 42.7025 52.0278 44.7837 45.8303 47.6512C45.784 47.6512 45.7378 47.6975 45.6915 47.7437C33.1115 66.5675 29.6428 84.8825 31.354 103.012C31.354 103.105 31.4003 103.197 31.4928 103.244C39.8178 109.349 47.819 113.049 55.7278 115.5C55.8665 115.546 56.0053 115.5 56.0515 115.407C57.9015 112.864 59.5665 110.181 61.0003 107.36C61.0928 107.175 61.0003 106.99 60.8153 106.944C58.179 105.926 55.6815 104.724 53.2303 103.336C53.0453 103.244 53.0453 102.966 53.184 102.827C53.6928 102.457 54.2015 102.041 54.7103 101.671C54.8028 101.579 54.9415 101.579 55.034 101.625C70.944 108.886 88.1028 108.886 103.828 101.625C103.92 101.579 104.059 101.579 104.152 101.671C104.66 102.087 105.169 102.458 105.678 102.874C105.863 103.013 105.863 103.29 105.632 103.382C103.227 104.816 100.683 105.972 98.0465 106.99C97.8615 107.036 97.8153 107.267 97.8615 107.406C99.3415 110.227 101.007 112.91 102.81 115.454C102.949 115.5 103.088 115.546 103.227 115.5C111.182 113.049 119.183 109.349 127.508 103.244C127.6 103.197 127.647 103.105 127.647 103.012C129.682 82.0612 124.27 63.885 113.309 47.7437C113.263 47.6975 113.217 47.6512 113.124 47.6512ZM63.4053 91.9587C58.6416 91.9587 54.664 87.565 54.664 82.1537C54.664 76.7425 58.5491 72.3487 63.4053 72.3487C68.3078 72.3487 72.1928 76.7887 72.1465 82.1537C72.1465 87.565 68.2616 91.9587 63.4053 91.9587ZM95.6415 91.9587C90.8778 91.9587 86.9003 87.565 86.9003 82.1537C86.9003 76.7425 90.7853 72.3487 95.6415 72.3487C100.544 72.3487 104.429 76.7887 104.383 82.1537C104.383 87.565 100.544 91.9587 95.6415 91.9587Z" fill="white"/>
</g>
<defs>
<clipPath id="clip0_2173_512">
<rect width="158" height="158" fill="white"/>
</clipPath>
</defs>
</svg>
