<svg width="43" height="42" viewBox="0 0 43 42" fill="none" xmlns="http://www.w3.org/2000/svg">
<g clip-path="url(#clip0_2173_489)">
<path d="M21.4971 42C33.0951 42 42.4971 32.598 42.4971 21C42.4971 9.40202 33.0951 0 21.4971 0C9.89909 0 0.49707 9.40202 0.49707 21C0.49707 32.598 9.89909 42 21.4971 42Z" fill="#2D3B83"/>
<path d="M25.5295 18.734C26.2042 18.0652 26.874 16.5047 24.0627 18.3996C21.4365 20.1911 18.7925 21.9569 16.1311 23.6966C15.7258 23.8783 15.2876 23.9768 14.843 23.9864C14.3983 23.996 13.9562 23.9164 13.5434 23.7524C11.8566 23.2508 9.88743 22.582 9.88743 22.582C9.88743 22.582 8.54288 21.7448 10.8445 20.8531C10.8445 20.8531 20.5754 16.8948 23.9502 15.5003C25.2435 14.943 29.6304 13.1595 29.6304 13.1595C29.6304 13.1595 31.6558 12.3781 31.4871 14.2742C31.4309 15.0544 30.981 17.7878 30.5312 20.7416C29.8553 24.9227 29.1243 29.4952 29.1243 29.4952C29.1243 29.4952 29.0119 30.7771 28.056 31C27.0328 30.9828 26.0442 30.6301 25.2447 29.9968C25.0198 29.8296 21.0265 27.3204 19.5633 26.0943C19.4145 25.9944 19.2936 25.8588 19.2118 25.7001C19.1301 25.5414 19.0902 25.3648 19.0958 25.1867C19.1014 25.0086 19.1524 24.8348 19.2439 24.6814C19.3355 24.5281 19.4647 24.4002 19.6196 24.3097C21.6263 22.4898 23.5967 20.6309 25.5295 18.734Z" fill="white"/>
</g>
<defs>
<clipPath id="clip0_2173_489">
<rect width="43" height="42" fill="white"/>
</clipPath>
</defs>
</svg>
