<svg width="158" height="158" viewBox="0 0 158 158" fill="none" xmlns="http://www.w3.org/2000/svg">
<g clip-path="url(#clip0_2173_516)">
<path d="M79 158C122.63 158 158 122.63 158 79C158 35.3695 122.63 0 79 0C35.3695 0 0 35.3695 0 79C0 122.63 35.3695 158 79 158Z" fill="#2D3B83"/>
<path d="M79 42.75C34.28 42.75 33.5 46.78 33.5 78.5C33.5 110.22 34.28 114.25 79 114.25C123.72 114.25 124.5 110.22 124.5 78.5C124.5 46.78 123.72 42.75 79 42.75ZM93.56 80.06L73.15 89.81C71.33 90.655 69.9 89.68 69.9 87.665V69.335C69.9 67.32 71.395 66.345 73.15 67.19L93.56 76.94C95.38 77.785 95.38 79.215 93.56 80.06Z" fill="white"/>
</g>
<defs>
<clipPath id="clip0_2173_516">
<rect width="158" height="158" fill="white"/>
</clipPath>
</defs>
</svg>
