<svg width="129" height="126" viewBox="0 0 129 126" fill="none" xmlns="http://www.w3.org/2000/svg">
<path d="M64.4912 126C99.2851 126 127.491 97.7939 127.491 63C127.491 28.2061 99.2851 0 64.4912 0C29.6973 0 1.49121 28.2061 1.49121 63C1.49121 97.7939 29.6973 126 64.4912 126Z" fill="#2D3B83"/>
<path d="M76.5885 56.202C78.6126 54.1956 80.622 49.5141 72.1881 55.1988C64.3095 60.5733 56.3775 65.8707 48.3933 71.0898C47.1774 71.6349 45.8628 71.9304 44.529 71.9592C43.1949 71.988 41.8686 71.7492 40.6302 71.2572C35.5698 69.7524 29.6623 67.746 29.6623 67.746C29.6623 67.746 25.6286 65.2344 32.5335 62.5593C32.5335 62.5593 61.7262 50.6844 71.8506 46.5009C75.7305 44.829 88.8912 39.4785 88.8912 39.4785C88.8912 39.4785 94.9674 37.1343 94.4613 42.8226C94.2927 45.1632 92.943 53.3634 91.5936 62.2248C89.5659 74.7681 87.3729 88.4856 87.3729 88.4856C87.3729 88.4856 87.0357 92.3313 84.168 93C81.0984 92.9484 78.1326 91.8903 75.7341 89.9904C75.0594 89.4888 63.0795 81.9612 58.6899 78.2829C58.2435 77.9832 57.8808 77.5764 57.6354 77.1003C57.3903 76.6242 57.2706 76.0944 57.2874 75.5601C57.3042 75.0258 57.4572 74.5044 57.7317 74.0442C58.0065 73.5843 58.3941 73.2006 58.8588 72.9291C64.8789 67.4694 70.7901 61.8927 76.5885 56.202Z" fill="white"/>
<path d="M46.3637 44.7273L46.6365 37.2273L40.2955 41.25L38.6592 38.3864L45.341 34.9091L38.6592 31.4318L40.2955 28.5682L46.6365 32.5909L46.3637 25.0909H49.6365L49.3637 32.5909L55.7046 28.5682L57.341 31.4318L50.6592 34.9091L57.341 38.3864L55.7046 41.25L49.3637 37.2273L49.6365 44.7273H46.3637Z" fill="white"/>
</svg>
