<svg width="43" height="42" viewBox="0 0 43 42" fill="none" xmlns="http://www.w3.org/2000/svg">
<g clip-path="url(#clip0_2173_479)">
<path d="M21.4971 42C33.0951 42 42.4971 32.598 42.4971 21C42.4971 9.40202 33.0951 0 21.4971 0C9.89909 0 0.49707 9.40202 0.49707 21C0.49707 32.598 9.89909 42 21.4971 42Z" fill="#2D3B83"/>
<path d="M31.2898 22.4158V28.6917C31.2898 28.8459 31.1577 28.978 31.0035 28.978H27.7665C27.6123 28.978 27.4802 28.8459 27.4802 28.6917V22.8562C27.4802 21.3148 26.9297 20.2578 25.5424 20.2578C24.4854 20.2578 23.8688 20.9624 23.5825 21.6451C23.4724 21.8873 23.4504 22.2396 23.4504 22.5699V28.6917C23.4504 28.8459 23.3183 28.978 23.1641 28.978H19.9491C19.795 28.978 19.6628 28.8459 19.6628 28.6917C19.6628 27.1282 19.7069 19.5751 19.6628 17.8135C19.6628 17.6593 19.795 17.5272 19.9491 17.5272H23.1862C23.3403 17.5272 23.4724 17.6593 23.4724 17.8135V19.1567C23.4724 19.1787 23.4504 19.1787 23.4504 19.2008H23.4724V19.1567C23.9789 18.386 24.8818 17.2629 26.9077 17.2629C29.418 17.2629 31.2898 18.9145 31.2898 22.4158ZM14.0255 29H17.2626C17.4167 29 17.5488 28.8679 17.5488 28.7137V17.8135C17.5488 17.6593 17.4167 17.5272 17.2626 17.5272H14.0255C13.8714 17.5272 13.7393 17.6593 13.7393 17.8135V28.7137C13.7613 28.8679 13.8714 29 14.0255 29Z" fill="white"/>
<path d="M15.545 16.0959C16.676 16.0959 17.5929 15.179 17.5929 14.0479C17.5929 12.9169 16.676 12 15.545 12C14.414 12 13.4971 12.9169 13.4971 14.0479C13.4971 15.179 14.414 16.0959 15.545 16.0959Z" fill="white"/>
</g>
<defs>
<clipPath id="clip0_2173_479">
<rect width="43" height="42" fill="white"/>
</clipPath>
</defs>
</svg>
