<svg width="43" height="42" viewBox="0 0 43 42" fill="none" xmlns="http://www.w3.org/2000/svg">
<g clip-path="url(#clip0_2173_483)">
<path d="M21.4971 42C33.0951 42 42.4971 32.598 42.4971 21C42.4971 9.40202 33.0951 0 21.4971 0C9.89909 0 0.49707 9.40202 0.49707 21C0.49707 32.598 9.89909 42 21.4971 42Z" fill="#2D3B83"/>
<path d="M21.4971 9.00062C18.3481 8.96852 15.3153 10.1918 13.0651 12.4017C10.815 14.6116 9.53161 17.6272 9.49707 20.7858C9.5092 23.282 10.3097 25.7101 11.7837 27.7213C13.2576 29.7326 15.3292 31.2235 17.7007 31.98C18.3007 32.0894 18.5189 31.7283 18.5189 31.411V29.4085C15.1807 30.1198 14.4716 27.8328 14.4716 27.8328C14.2494 27.1148 13.777 26.5011 13.1407 26.1039C12.0498 25.3816 13.228 25.3926 13.228 25.3926C13.6051 25.4432 13.9658 25.5787 14.2832 25.7891C14.6006 25.9994 14.8664 26.2791 15.0607 26.6072C15.3993 27.1961 15.9547 27.628 16.6076 27.8102C17.2605 27.9923 17.9586 27.9101 18.5516 27.5811C18.6126 26.9819 18.8831 26.4236 19.3153 26.0054C16.6534 25.7099 13.8607 24.7032 13.8607 20.1839C13.8369 19.0051 14.2712 17.8631 15.0716 16.9996C14.7071 15.9875 14.7501 14.8727 15.1916 13.8919C15.1916 13.8919 16.2062 13.5746 18.4643 15.0956C20.43 14.5702 22.4986 14.5702 24.4643 15.0956C26.7553 13.5746 27.7371 13.8919 27.7371 13.8919C28.1786 14.8727 28.2216 15.9875 27.8571 16.9996C28.6761 17.8473 29.1339 18.9816 29.1334 20.162C29.1334 24.6923 26.3189 25.688 23.6789 25.9835C23.968 26.265 24.1913 26.6073 24.3327 26.9857C24.4742 27.3641 24.5303 27.7692 24.4971 28.172V31.4001C24.4971 31.783 24.7153 32.0894 25.3153 31.9691C27.6801 31.2079 29.7446 29.7166 31.214 27.7082C32.6834 25.6998 33.4825 23.2769 33.4971 20.7858C33.4625 17.6272 32.1792 14.6116 29.929 12.4017C27.6788 10.1918 24.646 8.96852 21.4971 9.00062Z" fill="white"/>
</g>
<defs>
<clipPath id="clip0_2173_483">
<rect width="43" height="42" fill="white"/>
</clipPath>
</defs>
</svg>
