<svg width="158" height="158" viewBox="0 0 158 158" fill="none" xmlns="http://www.w3.org/2000/svg">
<g clip-path="url(#clip0_2173_501)">
<path d="M79 158C122.63 158 158 122.63 158 79C158 35.3695 122.63 0 79 0C35.3695 0 0 35.3695 0 79C0 122.63 35.3695 158 79 158Z" fill="#2D3B83"/>
<path d="M123.875 69.5927L123.744 69.2563L111.039 36.1077C110.782 35.4537 110.324 34.8982 109.731 34.5211C109.139 34.1441 108.441 33.965 107.74 34.0096C107.038 34.0409 106.364 34.2938 105.815 34.7321C105.266 35.1703 104.87 35.7714 104.684 36.4488L96.105 62.7378H61.349L52.7558 36.4535C52.5719 35.7758 52.178 35.1737 51.6306 34.7338C51.0833 34.2939 50.4106 34.0387 49.7091 34.005C49.0079 33.9668 48.3123 34.1491 47.7199 34.5261C47.1274 34.9032 46.6678 35.4563 46.4055 36.1077L33.6863 69.303L33.5554 69.6301C31.7294 74.4109 31.5048 79.6554 32.9154 84.5749C34.326 89.4943 37.2956 93.8229 41.3776 96.9096L41.4244 96.9423L41.5365 97.0311L60.9144 111.535L70.4936 118.792L76.3205 123.203C77.0039 123.72 77.8374 124 78.6943 124C79.5512 124 80.3847 123.72 81.068 123.203L86.895 118.792L96.4741 111.535L115.969 96.9423L116.016 96.905C120.112 93.8222 123.095 89.4902 124.513 84.5631C125.93 79.6361 125.707 74.3814 123.875 69.5927Z" fill="white"/>
</g>
<defs>
<clipPath id="clip0_2173_501">
<rect width="158" height="158" fill="white"/>
</clipPath>
</defs>
</svg>
