<svg width="158" height="158" viewBox="0 0 158 158" fill="none" xmlns="http://www.w3.org/2000/svg">
<g clip-path="url(#clip0_2173_498)">
<path d="M79 158C122.63 158 158 122.63 158 79C158 35.3695 122.63 0 79 0C35.3695 0 0 35.3695 0 79C0 122.63 35.3695 158 79 158Z" fill="#2D3B83"/>
<path d="M61 52C68.1608 52 75.0284 54.8446 80.0919 59.9081C85.1554 64.9716 88 71.8392 88 79C88 86.1608 85.1554 93.0284 80.0919 98.0919C75.0284 103.155 68.1608 106 61 106C53.8392 106 46.9716 103.155 41.9081 98.0919C36.8446 93.0284 34 86.1608 34 79C34 71.8392 36.8446 64.9716 41.9081 59.9081C46.9716 54.8446 53.8392 52 61 52ZM101.5 56.5C108.25 56.5 112.75 66.5755 112.75 79C112.75 91.4245 108.25 101.5 101.5 101.5C94.75 101.5 90.25 91.4245 90.25 79C90.25 66.5755 94.75 56.5 101.5 56.5ZM119.5 58.75C121.21 58.75 122.704 62.4715 123.46 68.857L123.672 70.8505L123.757 71.908L123.892 74.131L123.937 75.2965L123.991 77.731L124 79L123.991 80.269L123.937 82.7035L123.892 83.8735L123.757 86.092L123.667 87.1495L123.465 89.143C122.704 95.533 121.215 99.25 119.5 99.25C117.79 99.25 116.296 95.5285 115.54 89.143L115.328 87.1495C115.298 86.7972 115.269 86.4447 115.243 86.092L115.108 83.869C115.091 83.4806 115.076 83.0921 115.063 82.7035L115.009 80.269V77.731L115.063 75.2965L115.108 74.1265L115.243 71.908L115.333 70.8505L115.535 68.857C116.296 62.467 117.785 58.75 119.5 58.75Z" fill="white"/>
</g>
<defs>
<clipPath id="clip0_2173_498">
<rect width="158" height="158" fill="white"/>
</clipPath>
</defs>
</svg>
