<svg width="161" height="32" viewBox="0 0 161 32" fill="none" xmlns="http://www.w3.org/2000/svg">
<path fill-rule="evenodd" clip-rule="evenodd" d="M41.5817 11.1332C40.1353 7.48702 37.1716 4.46659 33.1768 3.07545C26.2235 0.654215 18.6546 4.04212 15.7602 10.6814C16.3703 11.3437 16.605 12.312 16.2882 13.2218C15.8301 14.5373 14.3923 15.2325 13.0767 14.7743C11.7612 14.3162 11.066 12.8784 11.5241 11.5628C11.8515 10.6226 12.6794 9.99929 13.6054 9.88739C16.9334 2.07757 25.7943 -1.92332 33.9311 0.909932C38.8732 2.63099 42.4587 6.49438 44.01 11.0976L41.5817 11.1332ZM45.2777 6.50153C49.3056 8.99289 52.7255 12.3691 55.2662 16.3582C52.664 20.4435 49.14 23.886 44.9852 26.3936C43.4553 28.4574 41.4728 30.2164 39.1673 31.5489C46.6854 29.1158 53.0436 24.1143 57.2011 17.5859C57.678 16.8366 57.678 15.8796 57.2011 15.1304C53.1982 8.84481 47.1554 3.97435 40.0009 1.44938C42.0973 2.80209 43.8928 4.51977 45.2777 6.50153ZM17.0387 1.63742C10.1113 4.21173 4.26371 8.99738 0.357878 15.1304C-0.119293 15.8796 -0.119293 16.8366 0.357878 17.5859C4.41648 23.9588 10.5718 28.877 17.8565 31.3708C15.5852 30.0039 13.6403 28.2187 12.152 26.1345C8.18064 23.6511 4.80636 20.3046 2.29306 16.3582C4.74674 12.5053 8.02117 9.22413 11.8706 6.75981C13.2168 4.76053 14.9759 3.01973 17.0387 1.63742ZM15.3156 20.8668C16.7619 24.513 19.7254 27.5334 23.7201 28.9247C30.6735 31.3459 38.2425 27.9578 41.1367 21.3184C40.5265 20.6562 40.2919 19.6879 40.6088 18.7781C41.067 17.4625 42.5044 16.7674 43.8203 17.2255C45.1355 17.6836 45.8311 19.1214 45.3729 20.437C45.0455 21.3772 44.2175 22.0005 43.2916 22.1124C39.9637 29.9223 31.1027 33.9234 22.9659 31.0901C18.0237 29.3691 14.4382 25.5056 12.8873 20.9025L15.3156 20.8668ZM28.777 27.325C34.7556 27.325 39.6025 22.3602 39.6025 16.2357C39.6025 10.1112 34.7556 5.14635 28.777 5.14635C22.7984 5.14635 17.9521 10.1112 17.9521 16.2357C17.9521 22.3602 22.7984 27.325 28.777 27.325ZM32.3038 13.246C32.3038 14.5796 31.5924 15.7429 30.5366 16.3593L31.4116 21.5725C31.5061 22.1371 31.0817 22.6531 30.5221 22.6531H26.9753C26.4163 22.6531 25.9912 22.1371 26.0865 21.5725L26.9718 16.2936C25.9761 15.6627 25.3122 14.5337 25.3122 13.246C25.3122 11.2683 26.878 9.66508 28.808 9.66508C30.7388 9.66508 32.3038 11.2683 32.3038 13.246Z" fill="white"/>
<path d="M66.7102 10.9901V8.45455H78.6562V10.9901H74.2031V23H71.1634V10.9901H66.7102ZM89.608 8.45455H92.6832V17.9006C92.6832 18.9612 92.4299 19.8892 91.9233 20.6847C91.4214 21.4801 90.7183 22.1004 89.8139 22.5455C88.9096 22.9858 87.8561 23.206 86.6534 23.206C85.446 23.206 84.3902 22.9858 83.4858 22.5455C82.5814 22.1004 81.8783 21.4801 81.3764 20.6847C80.8745 19.8892 80.6236 18.9612 80.6236 17.9006V8.45455H83.6989V17.6378C83.6989 18.1918 83.8196 18.6842 84.0611 19.1151C84.3073 19.5459 84.6529 19.8845 85.098 20.1307C85.5431 20.3769 86.0616 20.5 86.6534 20.5C87.25 20.5 87.7685 20.3769 88.2088 20.1307C88.6539 19.8845 88.9972 19.5459 89.2386 19.1151C89.4848 18.6842 89.608 18.1918 89.608 17.6378V8.45455ZM94.6594 10.9901V8.45455H106.605V10.9901H102.152V23H99.1126V10.9901H94.6594ZM117.557 8.45455H120.632V17.9006C120.632 18.9612 120.379 19.8892 119.873 20.6847C119.371 21.4801 118.667 22.1004 117.763 22.5455C116.859 22.9858 115.805 23.206 114.603 23.206C113.395 23.206 112.339 22.9858 111.435 22.5455C110.531 22.1004 109.828 21.4801 109.326 20.6847C108.824 19.8892 108.573 18.9612 108.573 17.9006V8.45455H111.648V17.6378C111.648 18.1918 111.769 18.6842 112.01 19.1151C112.257 19.5459 112.602 19.8845 113.047 20.1307C113.492 20.3769 114.011 20.5 114.603 20.5C115.199 20.5 115.718 20.3769 116.158 20.1307C116.603 19.8845 116.946 19.5459 117.188 19.1151C117.434 18.6842 117.557 18.1918 117.557 17.6378V8.45455ZM131.053 12.6378C130.996 12.0649 130.753 11.6198 130.322 11.3026C129.891 10.9853 129.306 10.8267 128.567 10.8267C128.066 10.8267 127.642 10.8977 127.296 11.0398C126.951 11.1771 126.685 11.3688 126.501 11.6151C126.321 11.8613 126.231 12.1406 126.231 12.4531C126.221 12.7135 126.276 12.9408 126.394 13.1349C126.517 13.3291 126.685 13.4972 126.898 13.6392C127.112 13.7765 127.358 13.8973 127.637 14.0014C127.916 14.1009 128.215 14.1861 128.532 14.2571L129.839 14.5696C130.473 14.7116 131.056 14.901 131.586 15.1378C132.116 15.3745 132.576 15.6657 132.964 16.0114C133.352 16.357 133.653 16.7642 133.866 17.233C134.084 17.7017 134.195 18.2391 134.2 18.8452C134.195 19.7353 133.968 20.5071 133.518 21.1605C133.073 21.8092 132.429 22.3134 131.586 22.6733C130.748 23.0284 129.737 23.206 128.553 23.206C127.379 23.206 126.356 23.026 125.485 22.6662C124.619 22.3063 123.942 21.7737 123.454 21.0682C122.971 20.358 122.718 19.4796 122.694 18.4332H125.67C125.703 18.9209 125.843 19.3281 126.089 19.6548C126.34 19.9768 126.674 20.2206 127.09 20.3864C127.512 20.5473 127.987 20.6278 128.518 20.6278C129.039 20.6278 129.491 20.5521 129.874 20.4006C130.263 20.2491 130.563 20.0384 130.776 19.7685C130.989 19.4986 131.096 19.1884 131.096 18.8381C131.096 18.5114 130.999 18.2367 130.805 18.0142C130.615 17.7917 130.336 17.6023 129.967 17.446C129.602 17.2898 129.155 17.1477 128.624 17.0199L127.04 16.6222C125.814 16.3239 124.846 15.8575 124.136 15.223C123.425 14.5885 123.073 13.7339 123.077 12.6591C123.073 11.7784 123.307 11.009 123.781 10.3509C124.259 9.69271 124.915 9.17898 125.748 8.80966C126.581 8.44034 127.528 8.25568 128.589 8.25568C129.668 8.25568 130.611 8.44034 131.415 8.80966C132.225 9.17898 132.855 9.69271 133.305 10.3509C133.754 11.009 133.987 11.7713 134.001 12.6378H131.053ZM143.404 23H140.109L145.13 8.45455H149.093L154.107 23H150.812L147.168 11.7784H147.055L143.404 23ZM143.198 17.2827H150.982V19.6832H143.198V17.2827ZM158.933 8.45455V23H155.858V8.45455H158.933Z" fill="white"/>
</svg>
